<svg viewBox="0 0 469 469" xmlns="http://www.w3.org/2000/svg" fill-rule="evenodd" clip-rule="evenodd" stroke-linejoin="round" stroke-miterlimit="2"><path fill="none" d="M0 0h468.245v468.245H0z"/><path d="M146.577 333.451c29.512 33.086 60.974 39.182 98.3 35.808.342 1.485 38.356-8.927 48.682-38.113 5.003-14.14 9.373-77.256 13.385-87.926 38.358-102.008-10.514-131.027-11.803-131.528-1.346-.525-54.183-15.663-97.633 79.028-5.247 11.437-46.345 61.534-52.528 75.587-12.61 28.682.523 67.818 1.597 67.144z" fill="#fff7f7"/><path d="M233.965 336.164c2.682-6.813-.671-14.521-7.484-17.203l-26.63-10.484c-6.814-2.682-14.522.672-17.204 7.484l-9.72 24.688c-2.681 6.813.673 14.52 7.486 17.203l26.63 10.483c6.813 2.682 14.521-.67 17.203-7.483l9.72-24.688z" fill="#fff7f7"/><path d="M229.816 321.582c-1.785-3.05-14.56-5.89-17.74-6.998-6.861 5.233-11.692 21.62-15.726 42.379 5.04-3.675 26.869.99 31.472-3.689 3.307-3.362 8.877-20.999 1.994-31.692z" fill="#c30022" fill-opacity=".08"/><path d="M351.213 148.693l-58.55-33.832c-13.457 11.266-38.179 69.756-46.338 89.624-7.696 18.739-33.514 82.553-33.551 107.697l22.916 9.063 7.245 35.65 31.278-13.486 77-194.716z" fill="#00fff8" fill-opacity=".07"/><path d="M715.086 140.422a9.858 9.858 0 01-7.52-8.585c-6.179-58.402-55.8-103.981-116.281-103.981-43.491 0-81.349 23.608-101.512 58.558a9.875 9.875 0 01-12.454 4.235c-7.437-3.155-15.577-4.985-24.188-4.985-31.815 0-57.878 23.692-61.713 54.228a9.9 9.9 0 01-5.279 7.561c-26.062 13.74-43.844 40.905-43.844 72.249 0 45.205 36.922 81.844 82.462 81.844h270.131c45.567 0 82.503-36.639 82.503-81.844 0-38.29-26.527-70.342-62.305-79.28zm-192.804 137.91a1.21 1.21 0 001.97.784c4.733-3.854 18.04-15.108 20.754-21.937 2.596-6.53-.395-13.858-6.675-16.354-6.28-2.496-13.486.779-16.081 7.309-2.715 6.829-.764 24.147.032 30.198zm5.833-48.365c1.355 1.954 19.926 10.31 22.828 10.022 2.702-.269 6.202-2.588 9.299-4.249.531-.287 1.138.045 1.246.671 1.142 6.576 6.338 37.306 6.338 37.306.206 1.222 1.395 1.876 2.419 1.305 6.273-3.493 25.522-15.868 34.411-40.415 4.306-11.895 2.255-25.89-1.954-33.682a1.758 1.758 0 01.074-1.824c3.993-6.086 11.793-28.916 15.223-37.897 32.787-85.869-3.21-108.435-4.17-108.811-1.001-.393-40.509-11.315-76.892 68.639-4.393 9.657-15.259 33.487-16.783 41.503-.126.658-.57 1.159-1.194 1.318-7.983 2.062-19.395 9.698-24.592 21.557-10.603 24.2-5.349 47.985-3.439 54.853.287 1.023 1.37 1.424 2.208.831l30.307-21.477c.45-.32 1.038-.1 1.194.451.965 3.415 2.11 7.929 3.477 9.899zm18.709 14.367a7.438 7.438 0 018.306 6.898c.341 5.233-3.609 16.294-5.269 20.673a.913.913 0 01-1.655.118c-1.028-1.913-2.734-5.196-4.301-8.688 1.767-2.174 3.147-4.249 3.869-6.063a14.848 14.848 0 00-.95-12.938zm-28.069 9.525c.193-3.005.62-5.648 1.384-7.571 1.791-4.506 5.544-7.651 9.888-8.846a7.439 7.439 0 00-10.481-.354c-3.818 3.55-8.505 14.198-10.328 18.572a.95.95 0 001.17 1.273c1.943-.647 5.1-1.747 8.367-3.074zm75.797-128.345c-8.433 4.229-18.465-1.271-20.041-10.986-.981-6.057 2.047-12.217 7.301-14.854 8.431-4.228 18.463 1.273 20.039 10.991.981 6.053-2.044 12.212-7.299 14.849z" fill="url(#_Linear1)" transform="matrix(1.05456 0 0 1.05456 -355.532 60.435)"/><defs><linearGradient id="_Linear1" x1="0" y1="0" x2="1" y2="0" gradientUnits="userSpaceOnUse" gradientTransform="matrix(200.213 -217.905 137.07 125.941 487.932 295.727)"><stop offset="0" stop-color="#c30022"/><stop offset=".47" stop-color="#8d2cf0"/><stop offset="1" stop-color="#3ff"/></linearGradient></defs></svg>